<svg width="900" height="240" xmlns="http://www.w3.org/2000/svg" xmlns:xlink="http://www.w3.org/1999/xlink" overflow="hidden"><defs><clipPath id="clip0"><path d="M153 163 1053 163 1053 403 153 403Z" fill-rule="evenodd" clip-rule="evenodd"/></clipPath><linearGradient x1="923.725" y1="265.669" x2="923.725" y2="316.375" gradientUnits="userSpaceOnUse" spreadMethod="reflect" id="fill1"><stop offset="0" stop-color="#FFC000"/><stop offset="0.53" stop-color="#FF6600"/><stop offset="1" stop-color="#FF6600"/></linearGradient></defs><g clip-path="url(#clip0)" transform="translate(-153 -163)"><text font-family="Calibri,Calibri_MSFontService,sans-serif" font-weight="300" font-size="27" transform="translate(169.832 378)">same class<tspan x="222.58" y="0">sibling class</tspan><tspan x="456.099" y="1">different class</tspan><tspan x="665.038" y="0">different algorithm</tspan></text><rect x="184" y="178" width="86" height="159" fill="#595959"/><rect x="184" y="225" width="86" height="17" fill="#FF6600"/><rect x="184" y="253" width="86" height="17" fill="#FF6600"/><text fill="#FFFFFF" font-family="Bahnschrift,Bahnschrift_MSFontService,sans-serif" font-weight="600" font-size="16" transform="translate(186.411 199)">CLASS</text><path d="M0.962958-0.26965 16.5975 55.5636 14.6716 56.1029-0.962958 0.26965ZM21.6947 52.7517 18.8703 67.3888 8.85529 56.347Z" fill="#FF6600" transform="matrix(-1 -8.74228e-08 -8.74228e-08 1 252.87 239)"/><path d="M202.944 269.669 211.945 295.305 210.058 295.967 201.056 270.331ZM216.85 292.17 214.977 306.959 204.269 296.587Z" fill="#FF6600"/><rect x="184" y="307" width="86" height="17" fill="#FF6600"/><rect x="408" y="180" width="86" height="87" fill="#595959"/><rect x="360" y="285" width="86" height="51" fill="#595959"/><rect x="453" y="285" width="86" height="51" fill="#595959"/><path d="M0.355267-0.934765 36.7399 12.8936 36.0293 14.7631-0.355267 0.934765ZM37.5067 7.12289 47.6018 18.0915 32.7698 19.5864Z" fill="#595959" transform="matrix(1 0 0 -1 403 285.092)"/><path d="M496.237 286.021 461.786 272.354 462.523 270.495 496.975 284.162ZM460.936 278.113 451 267 465.852 265.72Z" fill="#595959"/><rect x="360" y="314" width="86" height="17" fill="#FF6600"/><rect x="453" y="313" width="86" height="17" fill="#FF6600"/><text fill="#FFFFFF" font-family="Bahnschrift,Bahnschrift_MSFontService,sans-serif" font-weight="600" transform="translate(410.923 195)">SUPER <tspan x="0" y="14">CLASS</tspan><tspan x="-45.7665" y="106">CLASS</tspan><tspan x="47.6559" y="106">CLASS</tspan></text><path d="M0.969622-0.244607 14.4469 53.1793 12.5077 53.6686-0.969622 0.244607ZM19.6153 50.5004 16.4126 65.0594 6.68702 53.7618Z" fill="#FF6600" transform="matrix(1 0 0 -1 411 317.059)"/><path d="M495.263 313.226 474.6 262.491 476.452 261.736 497.115 312.471ZM469.855 265.863 471 251 482.203 260.834Z" fill="#FF6600"/><rect x="408" y="231" width="86" height="17" fill="#FF6600"/><rect x="608" y="268" width="86" height="74" fill="#595959"/><rect x="707" y="268" width="86" height="74" fill="#595959"/><rect x="608" y="304" width="86" height="16" fill="#FF6600"/><rect x="707" y="311" width="86" height="17" fill="#FF6600"/><text fill="#FFFFFF" font-family="Bahnschrift,Bahnschrift_MSFontService,sans-serif" font-weight="600" font-size="16" transform="translate(614.066 290)">CLASS<tspan x="99.3439" y="0">CLASS</tspan></text><rect x="664" y="167" width="86" height="74" fill="#595959"/><rect x="664" y="203" width="86" height="16" fill="#FF6600"/><text fill="#FFFFFF" font-family="Bahnschrift,Bahnschrift_MSFontService,sans-serif" font-weight="600" transform="translate(666.972 181)">NEW <tspan x="0" y="14">CLASS</tspan></text><path d="M0.854646-0.519211 47.3299 75.9812 45.6206 77.0196-0.854646 0.519211ZM51.4805 71.8994 52.7057 86.7561 40.0853 78.8222Z" fill="#FF6600" transform="matrix(1 0 0 -1 654 305.756)"/><path d="M749.283 311.425 722.792 230.713 724.692 230.09 751.183 310.802ZM717.824 233.747 720 219 730.492 229.589Z" fill="#FF6600"/><rect x="894" y="174" width="86" height="159" fill="#595959"/><rect x="894" y="221" width="86" height="17" fill="#FF6600"/><rect x="894" y="249" width="86" height="17" fill="#FFC000"/><text fill="#FFFFFF" font-family="Bahnschrift,Bahnschrift_MSFontService,sans-serif" font-weight="600" font-size="16" transform="translate(896.186 195)">CLASS</text><path d="M0.962958-0.26965 16.5975 55.5636 14.6716 56.1029-0.962958 0.26965ZM21.6947 52.7517 18.8703 67.3888 8.85529 56.347Z" fill="#FF6600" transform="matrix(-1 -8.74228e-08 -8.74228e-08 1 962.87 235)"/><path d="M911.944 265.669 920.945 291.305 919.058 291.967 910.056 266.331ZM925.85 288.17 923.977 302.959 913.269 292.587Z" fill="url(#fill1)"/><rect x="894" y="303" width="86" height="17" fill="#FF6600"/></g></svg>