<svg width="3575" height="1469" xmlns="http://www.w3.org/2000/svg" xmlns:xlink="http://www.w3.org/1999/xlink" overflow="hidden"><defs><clipPath id="clip0"><rect x="156" y="610" width="3575" height="1469"/></clipPath><clipPath id="clip1"><rect x="156" y="610" width="2195" height="1469"/></clipPath><clipPath id="clip2"><rect x="156" y="610" width="2195" height="1469"/></clipPath><clipPath id="clip3"><rect x="156" y="610" width="2195" height="1469"/></clipPath><clipPath id="clip4"><rect x="2396" y="677" width="1336" height="1335"/></clipPath><clipPath id="clip5"><rect x="2396" y="677" width="1336" height="1335"/></clipPath><clipPath id="clip6"><rect x="2396" y="677" width="1336" height="1335"/></clipPath></defs><g clip-path="url(#clip0)" transform="translate(-156 -610)"><g clip-path="url(#clip1)"><g clip-path="url(#clip2)"><g clip-path="url(#clip3)"><path d="M1009.94 1224.17 459.062 1224.17 459.062 244.833 1009.94 244.833 1009.94 1224.17ZM673.292 122.417 795.708 122.417C812.541 122.417 826.312 136.189 826.312 153.021 826.312 169.853 812.541 183.625 795.708 183.625L673.292 183.625C656.459 183.625 642.687 169.853 642.687 153.021 642.687 136.189 656.459 122.417 673.292 122.417ZM1071.15 61.2083 397.854 61.2083C381.022 61.2083 367.25 74.9802 367.25 91.8125L367.25 1377.19C367.25 1394.02 381.022 1407.79 397.854 1407.79L1071.15 1407.79C1087.98 1407.79 1101.75 1394.02 1101.75 1377.19L1101.75 91.8125C1101.75 74.9802 1087.98 61.2083 1071.15 61.2083Z" transform="matrix(1.49421 0 0 1 156 610)"/></g></g></g><g clip-path="url(#clip4)"><g clip-path="url(#clip5)"><g clip-path="url(#clip6)"><path d="M3314.12 1789.67 2813.88 1789.67 2813.88 900.333 3314.12 900.333 3314.12 1789.67ZM3008.42 789.167 3119.58 789.167C3134.87 789.167 3147.38 801.673 3147.38 816.958 3147.38 832.244 3134.87 844.75 3119.58 844.75L3008.42 844.75C2993.13 844.75 2980.62 832.244 2980.62 816.958 2980.62 801.673 2993.13 789.167 3008.42 789.167ZM3369.71 733.583 2758.29 733.583C2743.01 733.583 2730.5 746.089 2730.5 761.375L2730.5 1928.62C2730.5 1943.91 2743.01 1956.42 2758.29 1956.42L3369.71 1956.42C3384.99 1956.42 3397.5 1943.91 3397.5 1928.62L3397.5 761.375C3397.5 746.089 3384.99 733.583 3369.71 733.583Z"/></g></g></g><rect x="866" y="1527" width="374" height="288" fill="#009030"/><text fill="#FFFFFF" font-family="Calibri Light,Calibri Light_MSFontService,sans-serif" font-weight="300" font-size="183" transform="matrix(1 0 0 1 935.309 1733)">Yes</text><rect x="1267" y="1527" width="374" height="288" fill="#780000"/><text fill="#FFFFFF" font-family="Calibri Light,Calibri Light_MSFontService,sans-serif" font-weight="300" font-size="183" transform="matrix(1 0 0 1 1347.79 1733)">No</text><rect x="2857" y="1467" width="419" height="288" fill="#009030"/><text fill="#FFFFFF" font-family="Calibri Light,Calibri Light_MSFontService,sans-serif" font-weight="300" font-size="183" transform="matrix(1 0 0 1 2948.54 1673)">Yes</text></g></svg>