<svg width="3775" height="1710" xmlns="http://www.w3.org/2000/svg" xmlns:xlink="http://www.w3.org/1999/xlink" xml:space="preserve" overflow="hidden"><g transform="translate(-143 -513)"><path d="M230 676 230 2221.24" stroke="#000000" stroke-width="2.29167" stroke-miterlimit="8" fill="none" fill-rule="evenodd"/><path d="M855 676 855 2221.24" stroke="#000000" stroke-width="2.29167" stroke-miterlimit="8" fill="none" fill-rule="evenodd"/><path d="M1410 676 1410 1645.05" stroke="#000000" stroke-width="2.29167" stroke-miterlimit="8" fill="none" fill-rule="evenodd"/><path d="M2458 676 2458 1645.05" stroke="#000000" stroke-width="2.29167" stroke-miterlimit="8" fill="none" fill-rule="evenodd"/><path d="M3191 676 3191 2221.24" stroke="#000000" stroke-width="2.29167" stroke-miterlimit="8" fill="none" fill-rule="evenodd"/><path d="M3917 676 3917 2221.24" stroke="#000000" stroke-width="2.29167" stroke-miterlimit="8" fill="none" fill-rule="evenodd"/><path d="M230 890 3916.54 890" stroke="#000000" stroke-width="2.29167" stroke-miterlimit="8" fill="none" fill-rule="evenodd"/><text font-family="Calibri Light,Calibri Light_MSFontService,sans-serif" font-weight="300" font-size="183" transform="matrix(1 0 0 1 253.397 869)">Backlog</text><text font-family="Calibri Light,Calibri Light_MSFontService,sans-serif" font-weight="300" font-size="183" transform="matrix(1 0 0 1 935.777 867)">Spec.</text><text font-family="Calibri Light,Calibri Light_MSFontService,sans-serif" font-weight="300" font-size="183" transform="matrix(1 0 0 1 1751.73 869)">Impl</text><text font-family="Calibri Light,Calibri Light_MSFontService,sans-serif" font-weight="300" font-size="183" transform="matrix(1 0 0 1 2077.15 869)">.</text><text font-family="Calibri Light,Calibri Light_MSFontService,sans-serif" font-weight="300" font-size="183" transform="matrix(1 0 0 1 2564.52 869)">Review</text><text font-family="Calibri Light,Calibri Light_MSFontService,sans-serif" font-weight="300" font-size="183" transform="matrix(1 0 0 1 3360.44 864)">Done</text><path d="M1240 700C1240 650.294 1280.07 610 1329.5 610 1378.93 610 1419 650.294 1419 700 1419 749.706 1378.93 790 1329.5 790 1280.07 790 1240 749.706 1240 700Z" fill="#0040A0" fill-rule="evenodd"/><text fill="#FFFFFF" font-family="Calibri Light,Calibri Light_MSFontService,sans-serif" font-weight="300" font-size="183" transform="matrix(1 0 0 1 1283.12 762)">3</text><path d="M2277 694C2277 644.294 2317.29 604 2367 604 2416.71 604 2457 644.294 2457 694 2457 743.706 2416.71 784 2367 784 2317.29 784 2277 743.706 2277 694Z" fill="#0040A0" fill-rule="evenodd"/><text fill="#FFFFFF" font-family="Calibri Light,Calibri Light_MSFontService,sans-serif" font-weight="300" font-size="183" transform="matrix(1 0 0 1 2320.57 756)">6</text><path d="M3011 678C3011 628.294 3051.07 588 3100.5 588 3149.93 588 3190 628.294 3190 678 3190 727.706 3149.93 768 3100.5 768 3051.07 768 3011 727.706 3011 678Z" fill="#0040A0" fill-rule="evenodd"/><text fill="#FFFFFF" font-family="Calibri Light,Calibri Light_MSFontService,sans-serif" font-weight="300" font-size="183" transform="matrix(1 0 0 1 3053.91 740)">3</text><rect x="302.5" y="933.5" width="477" height="238" stroke="#707070" stroke-width="20.625" stroke-miterlimit="8" fill="#FFFFFF"/><path d="M340 990 547.396 990" stroke="#707070" stroke-width="10.3125" stroke-miterlimit="8" fill="none" fill-rule="evenodd"/><path d="M340 1057 729.583 1057" stroke="#707070" stroke-width="10.3125" stroke-miterlimit="8" fill="none" fill-rule="evenodd"/><path d="M340 1124 611.562 1124" stroke="#707070" stroke-width="10.3125" stroke-miterlimit="8" fill="none" fill-rule="evenodd"/><rect x="302.5" y="1251.5" width="476" height="113" stroke="#707070" stroke-width="20.625" stroke-miterlimit="8" fill="#FFFFFF"/><path d="M340 1306 653.794 1306" stroke="#707070" stroke-width="10.3125" stroke-miterlimit="8" fill="none" fill-rule="evenodd"/><rect x="305.5" y="1416.5" width="476" height="239" stroke="#707070" stroke-width="20.625" stroke-miterlimit="8" fill="#FFFFFF"/><path d="M343 1474 550.396 1474" stroke="#707070" stroke-width="10.3125" stroke-miterlimit="8" fill="none" fill-rule="evenodd"/><path d="M343 1540 732.583 1540" stroke="#707070" stroke-width="10.3125" stroke-miterlimit="8" fill="none" fill-rule="evenodd"/><path d="M343 1608 614.563 1608" stroke="#707070" stroke-width="10.3125" stroke-miterlimit="8" fill="none" fill-rule="evenodd"/><rect x="304.5" y="1724.5" width="477" height="113" stroke="#707070" stroke-width="20.625" stroke-miterlimit="8" fill="#FFFFFF"/><path d="M342 1780 655.794 1780" stroke="#707070" stroke-width="10.3125" stroke-miterlimit="8" fill="none" fill-rule="evenodd"/><rect x="296.5" y="1907.5" width="477" height="112" stroke="#707070" stroke-width="20.625" stroke-miterlimit="8" fill="#FFFFFF"/><path d="M334 1962 647.795 1962" stroke="#707070" stroke-width="10.3125" stroke-miterlimit="8" fill="none" fill-rule="evenodd"/><rect x="895.5" y="933.5" width="476" height="238" stroke="#707070" stroke-width="20.625" stroke-miterlimit="8" fill="#FFFFFF"/><path d="M932 990 1139.4 990" stroke="#707070" stroke-width="10.3125" stroke-miterlimit="8" fill="none" fill-rule="evenodd"/><path d="M932 1057 1321.58 1057" stroke="#707070" stroke-width="10.3125" stroke-miterlimit="8" fill="none" fill-rule="evenodd"/><path d="M932 1124 1203.56 1124" stroke="#707070" stroke-width="10.3125" stroke-miterlimit="8" fill="none" fill-rule="evenodd"/><rect x="892.5" y="1233.5" width="476" height="239" stroke="#707070" stroke-width="20.625" stroke-miterlimit="8" fill="#FFFFFF"/><path d="M929 1290 1136.4 1290" stroke="#707070" stroke-width="10.3125" stroke-miterlimit="8" fill="none" fill-rule="evenodd"/><path d="M929 1357 1318.58 1357" stroke="#707070" stroke-width="10.3125" stroke-miterlimit="8" fill="none" fill-rule="evenodd"/><path d="M929 1424 1200.56 1424" stroke="#707070" stroke-width="10.3125" stroke-miterlimit="8" fill="none" fill-rule="evenodd"/><rect x="1455.5" y="942.5" width="477" height="239" stroke="#707070" stroke-width="20.625" stroke-miterlimit="8" fill="#FFFFFF"/><path d="M1493 1000 1700.4 1000" stroke="#707070" stroke-width="10.3125" stroke-miterlimit="8" fill="none" fill-rule="evenodd"/><path d="M1493 1066 1882.58 1066" stroke="#707070" stroke-width="10.3125" stroke-miterlimit="8" fill="none" fill-rule="evenodd"/><path d="M1493 1134 1764.56 1134" stroke="#707070" stroke-width="10.3125" stroke-miterlimit="8" fill="none" fill-rule="evenodd"/><rect x="1979.5" y="942.5" width="430" height="239" stroke="#707070" stroke-width="20.625" stroke-miterlimit="8" fill="#FFFFFF"/><path d="M2017 1000 2224.4 1000" stroke="#707070" stroke-width="10.3125" stroke-miterlimit="8" fill="none" fill-rule="evenodd"/><path d="M2017 1066 2288.56 1066" stroke="#707070" stroke-width="10.3125" stroke-miterlimit="8" fill="none" fill-rule="evenodd"/><path d="M2017 1134 2288.56 1134" stroke="#707070" stroke-width="10.3125" stroke-miterlimit="8" fill="none" fill-rule="evenodd"/><rect x="1454.5" y="1223.5" width="476" height="113" stroke="#707070" stroke-width="20.625" stroke-miterlimit="8" fill="#FFFFFF"/><path d="M1492 1279 1805.79 1279" stroke="#707070" stroke-width="10.3125" stroke-miterlimit="8" fill="none" fill-rule="evenodd"/><rect x="1982.5" y="1233.5" width="430" height="239" stroke="#707070" stroke-width="20.625" stroke-miterlimit="8" fill="#FFFFFF"/><path d="M2020 1290 2227.4 1290" stroke="#707070" stroke-width="10.3125" stroke-miterlimit="8" fill="none" fill-rule="evenodd"/><path d="M2020 1357 2291.56 1357" stroke="#707070" stroke-width="10.3125" stroke-miterlimit="8" fill="none" fill-rule="evenodd"/><path d="M2020 1424 2291.56 1424" stroke="#707070" stroke-width="10.3125" stroke-miterlimit="8" fill="none" fill-rule="evenodd"/><text font-family="Calibri Light,Calibri Light_MSFontService,sans-serif" font-weight="300" font-size="147" transform="matrix(1 0 0 1 1799.16 1801)">Blocked</text><path d="M855 1645 3193.58 1645" stroke="#000000" stroke-width="2.29167" stroke-miterlimit="8" fill="none" fill-rule="evenodd"/><rect x="893.5" y="1889.5" width="430" height="239" stroke="#707070" stroke-width="20.625" stroke-miterlimit="8" fill="#FFFFFF"/><path d="M931 1946 1138.4 1946" stroke="#707070" stroke-width="10.3125" stroke-miterlimit="8" fill="none" fill-rule="evenodd"/><path d="M931 2013 1202.56 2013" stroke="#707070" stroke-width="10.3125" stroke-miterlimit="8" fill="none" fill-rule="evenodd"/><path d="M931 2080 1202.56 2080" stroke="#707070" stroke-width="10.3125" stroke-miterlimit="8" fill="none" fill-rule="evenodd"/><rect x="1406.5" y="1962.5" width="477" height="112" stroke="#707070" stroke-width="20.625" stroke-miterlimit="8" fill="#FFFFFF"/><path d="M1444 2017 1757.79 2017" stroke="#707070" stroke-width="10.3125" stroke-miterlimit="8" fill="none" fill-rule="evenodd"/><rect x="2573.5" y="970.5" width="477" height="239" stroke="#707070" stroke-width="20.625" stroke-miterlimit="8" fill="#FFFFFF"/><path d="M2611 1027 2818.4 1027" stroke="#707070" stroke-width="10.3125" stroke-miterlimit="8" fill="none" fill-rule="evenodd"/><path d="M2611 1094 3000.58 1094" stroke="#707070" stroke-width="10.3125" stroke-miterlimit="8" fill="none" fill-rule="evenodd"/><path d="M2611 1161 2882.56 1161" stroke="#707070" stroke-width="10.3125" stroke-miterlimit="8" fill="none" fill-rule="evenodd"/><rect x="3307.5" y="1311.5" width="476" height="239" stroke="#707070" stroke-width="20.625" stroke-miterlimit="8" fill="#FFFFFF"/><path d="M3344 1368 3551.4 1368" stroke="#707070" stroke-width="10.3125" stroke-miterlimit="8" fill="none" fill-rule="evenodd"/><path d="M3344 1435 3733.58 1435" stroke="#707070" stroke-width="10.3125" stroke-miterlimit="8" fill="none" fill-rule="evenodd"/><path d="M3344 1502 3615.56 1502" stroke="#707070" stroke-width="10.3125" stroke-miterlimit="8" fill="none" fill-rule="evenodd"/><rect x="3305.5" y="1655.5" width="476" height="112" stroke="#707070" stroke-width="20.625" stroke-miterlimit="8" fill="#FFFFFF"/><path d="M3343 1710 3656.79 1710" stroke="#707070" stroke-width="10.3125" stroke-miterlimit="8" fill="none" fill-rule="evenodd"/><rect x="3296.5" y="997.5" width="477" height="239" stroke="#707070" stroke-width="20.625" stroke-miterlimit="8" fill="#FFFFFF"/><path d="M3334 1054 3541.4 1054" stroke="#707070" stroke-width="10.3125" stroke-miterlimit="8" fill="none" fill-rule="evenodd"/><path d="M3334 1121 3723.58 1121" stroke="#707070" stroke-width="10.3125" stroke-miterlimit="8" fill="none" fill-rule="evenodd"/><path d="M3334 1188 3605.56 1188" stroke="#707070" stroke-width="10.3125" stroke-miterlimit="8" fill="none" fill-rule="evenodd"/></g></svg>