<svg width="3603" height="1034" xmlns="http://www.w3.org/2000/svg" xmlns:xlink="http://www.w3.org/1999/xlink" xml:space="preserve" overflow="hidden"><defs><clipPath id="clip0"><rect x="471" y="748" width="3603" height="1034"/></clipPath></defs><g clip-path="url(#clip0)" transform="translate(-471 -748)"><text font-family="Calibri Light,Calibri Light_MSFontService,sans-serif" font-weight="300" font-size="183" transform="matrix(1 0 0 1 2063.37 1266)">vs.</text><rect x="471" y="776" width="1240" height="275" fill="#404040"/><text fill="#FFFFFF" font-family="Calibri Light,Calibri Light_MSFontService,sans-serif" font-weight="300" font-size="183" transform="matrix(1 0 0 1 1010.61 975)">UI</text><rect x="471" y="1100" width="1240" height="275" fill="#404040"/><text fill="#FFFFFF" font-family="Calibri Light,Calibri Light_MSFontService,sans-serif" font-weight="300" font-size="183" transform="matrix(1 0 0 1 902.612 1299)">Logic</text><rect x="471" y="1424" width="1240" height="275" fill="#404040"/><text fill="#FFFFFF" font-family="Calibri Light,Calibri Light_MSFontService,sans-serif" font-weight="300" font-size="183" transform="matrix(1 0 0 1 986.545 1624)">DB</text><rect x="3076" y="776" width="428" height="923" fill="#404040"/><text fill="#FFFFFF" font-family="Calibri Light,Calibri Light_MSFontService,sans-serif" font-weight="300" font-size="183" transform="matrix(1 0 0 1 3121.74 1299)">Map</text><rect x="2571" y="776" width="429" height="923" fill="#404040"/><text fill="#FFFFFF" font-family="Calibri Light,Calibri Light_MSFontService,sans-serif" font-weight="300" font-size="183" transform="matrix(1 0 0 1 2606.75 1299)">F</text><text fill="#FFFFFF" font-family="Calibri Light,Calibri Light_MSFontService,sans-serif" font-weight="300" font-size="183" transform="matrix(1 0 0 1 2688.28 1299)">eed</text><rect x="3580" y="776" width="429" height="923" fill="#404040"/><text fill="#FFFFFF" font-family="Calibri Light,Calibri Light_MSFontService,sans-serif" font-weight="300" font-size="183" transform="matrix(1 0 0 1 3625.22 1299)">Chat</text></g></svg>