<svg width="1204" height="269" xmlns="http://www.w3.org/2000/svg" xmlns:xlink="http://www.w3.org/1999/xlink" overflow="hidden"><defs><clipPath id="clip0"><path d="M39 133 1243 133 1243 402 39 402Z" fill-rule="evenodd" clip-rule="evenodd"/></clipPath></defs><g clip-path="url(#clip0)" transform="translate(-39 -133)"><rect x="50" y="149" width="146" height="189" fill="#595959"/><rect x="50" y="222" width="146" height="31" fill="#FF6600"/><rect x="50" y="273" width="146" height="32" fill="#FF6600"/><text fill="#FFFFFF" font-family="Bahnschrift,Bahnschrift_MSFontService,sans-serif" font-weight="600" font-size="21" transform="translate(52.1235 172)">CLAS<tspan x="52.3333" y="0">S</tspan></text><rect x="663" y="199" width="146" height="138" fill="#595959"/><rect x="831" y="199" width="146" height="138" fill="#595959"/><rect x="663" y="265" width="146" height="31" fill="#FF6600"/><rect x="831" y="279" width="146" height="32" fill="#FF6600"/><text fill="#FFFFFF" font-family="Bahnschrift,Bahnschrift_MSFontService,sans-serif" font-weight="600" font-size="21" transform="translate(665.9 226)">CLAS<tspan x="52.3334" y="0">S</tspan><tspan x="168.767" y="0">CLAS</tspan><tspan x="221.1" y="0">S</tspan></text><rect x="1053" y="148" width="146" height="188" fill="#595959"/><rect x="1053" y="217" width="146" height="31" fill="#FF6600"/><rect x="1053" y="267" width="146" height="32" fill="#FFC000"/><text fill="#FFFFFF" font-family="Bahnschrift,Bahnschrift_MSFontService,sans-serif" font-weight="600" font-size="21" transform="translate(1056.21 173)">CLAS<tspan x="52.3333" y="0">S</tspan></text><rect x="358" y="137" width="147" height="72" fill="#595959"/><rect x="278" y="242" width="146" height="96" fill="#595959"/><rect x="436" y="242" width="146" height="96" fill="#595959"/><path d="M0.383361-0.923598 70.1667 28.0416 69.4 29.8888-0.383361 0.923598ZM71.1077 22.2968 80.8666 33.5656 65.9962 34.6114Z" fill="#595959" transform="matrix(1 0 0 -1 351 242.566)"/><path d="M509.079 243.483 442.614 214.688 443.409 212.853 509.874 241.648ZM441.584 220.418 432 209 446.885 208.183Z" fill="#595959"/><rect x="278" y="296" width="146" height="32" fill="#FF6600"/><rect x="436" y="295" width="146" height="32" fill="#FF6600"/><text fill="#FFFFFF" font-family="Bahnschrift,Bahnschrift_MSFontService,sans-serif" font-weight="600" font-size="21" transform="translate(361.93 161)">SUPER<tspan x="0" y="26">CLAS</tspan><tspan x="52.3333" y="26">S</tspan><tspan x="-82.4359" y="106">CLAS</tspan><tspan x="-30.1026" y="106">S</tspan><tspan x="76.2716" y="107">CLAS</tspan><tspan x="128.605" y="107">S</tspan><tspan fill="#000000" font-family="Calibri,Calibri_MSFontService,sans-serif" font-weight="300" font-size="27" x="-296.372" y="216">same</tspan><tspan fill="#000000" font-family="Calibri,Calibri_MSFontService,sans-serif" font-weight="300" font-size="27" x="-233.205" y="216">class</tspan><tspan fill="#000000" font-family="Calibri,Calibri_MSFontService,sans-serif" font-weight="300" font-size="27" x="9.62665" y="217">sibling class</tspan><tspan fill="#000000" font-family="Calibri,Calibri_MSFontService,sans-serif" font-weight="300" font-size="27" x="388.148" y="216">different class</tspan><tspan fill="#000000" font-family="Calibri,Calibri_MSFontService,sans-serif" font-weight="300" font-size="27" x="662.419" y="216">different algorithm</tspan></text></g></svg>