<svg width="4235" height="685" xmlns="http://www.w3.org/2000/svg" xmlns:xlink="http://www.w3.org/1999/xlink" overflow="hidden"><defs><clipPath id="clip0"><rect x="70" y="998" width="4235" height="685"/></clipPath></defs><g clip-path="url(#clip0)" transform="translate(-70 -998)"><path d="M2384 1029.8C2384 1012.24 2398.21 998 2415.75 998L4273.25 998C4290.79 998 4305 1012.24 4305 1029.8L4305 1284.2C4305 1301.76 4290.79 1316 4273.25 1316L2415.75 1316C2398.21 1316 2384 1301.76 2384 1284.2L2384 1029.8Z" fill="#0040A0" fill-rule="evenodd"/><text fill="#FFFFFF" font-family="Consolas,Consolas_MSFontService,sans-serif" font-weight="400" font-size="165" transform="matrix(1 0 0 1 3118.1 1204)">MyApp</text><path d="M2384 1367.8C2384 1350.24 2398.21 1336 2415.75 1336L4273.25 1336C4290.79 1336 4305 1350.24 4305 1367.8L4305 1622.2C4305 1639.76 4290.79 1654 4273.25 1654L2415.75 1654C2398.21 1654 2384 1639.76 2384 1622.2L2384 1367.8Z" fill="#003078" fill-rule="evenodd"/><text fill="#FFFFFF" font-family="Consolas,Consolas_MSFontService,sans-serif" font-weight="400" font-size="165" transform="matrix(1 0 0 1 2937.06 1542)">MobileApp</text><path d="M4083 1411 4122.5 1411 4122.5 1166 4201.5 1166 4201.5 1411 4241 1411 4162 1490Z" fill="#F0D000" fill-rule="evenodd"/><path d="M1097 1065.4C1097 1029.28 1103.8 1000 1112.19 1000L2000.81 1000C2009.2 1000 2016 1029.28 2016 1065.4L2016 1588.6C2016 1624.72 2009.2 1654 2000.81 1654L1112.19 1654C1103.8 1654 1097 1624.72 1097 1588.6L1097 1065.4Z" fill="#0040A0" fill-rule="evenodd"/><text fill="#FFFFFF" font-family="Consolas,Consolas_MSFontService,sans-serif" font-weight="400" font-size="165" transform="matrix(1 0 0 1 1330.02 1374)">MyApp</text><path d="M94.9999 1067.4C94.9999 1031.28 102.125 1002 110.915 1002L1042.08 1002C1050.87 1002 1058 1031.28 1058 1067.4L1058 1590.6C1058 1626.72 1050.87 1656 1042.08 1656L110.915 1656C102.125 1656 94.9999 1626.72 94.9999 1590.6L94.9999 1067.4Z" fill="#003078" fill-rule="evenodd"/><text fill="#FFFFFF" font-family="Consolas,Consolas_MSFontService,sans-serif" font-weight="400" font-size="165" transform="matrix(1 0 0 1 169.28 1376)">MobileApp</text><path d="M975 1457 975 1496.5 1220 1496.5 1220 1575.5 975 1575.5 975 1615 896 1536Z" fill="#F0D000" fill-rule="evenodd"/></g></svg>