<svg width="1280" height="302" xmlns="http://www.w3.org/2000/svg" xmlns:xlink="http://www.w3.org/1999/xlink" xml:space="preserve" overflow="hidden"><defs><clipPath id="clip0"><rect x="0" y="209" width="1280" height="302"/></clipPath><clipPath id="clip1"><rect x="977" y="209" width="303" height="302"/></clipPath><clipPath id="clip2"><rect x="977" y="209" width="303" height="302"/></clipPath><clipPath id="clip3"><rect x="977" y="209" width="303" height="302"/></clipPath><clipPath id="clip4"><rect x="0" y="209" width="303" height="302"/></clipPath><clipPath id="clip5"><rect x="0" y="209" width="303" height="302"/></clipPath><clipPath id="clip6"><rect x="0" y="209" width="303" height="302"/></clipPath><clipPath id="clip7"><rect x="488" y="209" width="304" height="302"/></clipPath><clipPath id="clip8"><rect x="488" y="209" width="304" height="302"/></clipPath><clipPath id="clip9"><rect x="488" y="209" width="304" height="302"/></clipPath></defs><g clip-path="url(#clip0)" transform="matrix(1 0 0 1 0 -209)"><g clip-path="url(#clip1)"><g clip-path="url(#clip2)"><g clip-path="url(#clip3)"><path d="M1641.75 502.088C1642.7 502.404 1643.33 503.032 1643.95 503.664L1689.57 548.332C1689.57 548.332 1689.57 548.648 1689.57 548.648L1647.73 580.419 1647.73 580.419 1632 565.635 1626.65 560.918C1625.39 559.658 1623.51 559.658 1622.25 560.918 1621.62 561.545 1621.31 562.172 1621.31 563.116L1621.31 716.951 1495.47 716.951 1495.47 562.805C1495.47 560.918 1494.21 559.658 1492.33 559.658 1491.38 559.658 1490.75 559.974 1490.12 560.602L1484.77 565.635 1469.05 580.419 1468.73 580.419 1427.21 548.648C1427.21 548.648 1427.21 548.332 1427.21 548.332L1472.82 503.664C1473.45 503.032 1474.08 502.716 1475.02 502.404L1517.81 486.361C1528.5 497.371 1542.97 503.664 1558.39 503.664 1573.8 503.664 1588.27 497.371 1598.97 486.361L1641.75 502.088ZM1598.97 479.754C1597.4 479.754 1595.51 480.382 1594.56 481.641 1585.13 491.394 1571.92 497.055 1558.39 497.055 1544.86 497.055 1531.65 491.394 1522.21 481.641 1520.95 480.382 1519.38 479.754 1517.81 479.754 1517.18 479.754 1516.23 479.754 1515.6 480.068L1472.82 496.112C1471.25 496.739 1469.67 497.682 1468.42 498.942L1422.49 543.931C1419.97 546.761 1420.29 550.851 1422.8 553.049 1422.8 553.049 1422.8 553.049 1423.12 553.365L1465.27 585.141C1466.53 586.084 1467.79 586.396 1469.36 586.396 1470.93 586.396 1472.51 585.768 1473.45 584.825L1489.18 570.041C1489.18 570.041 1489.18 570.041 1489.18 570.041 1489.18 570.041 1489.18 570.041 1489.18 570.041L1489.18 723.239 1627.6 723.239 1627.6 570.352C1627.6 570.352 1627.6 570.352 1627.6 570.352 1627.6 570.352 1627.6 570.352 1627.6 570.352L1643.33 585.141C1645.53 587.339 1648.99 587.339 1651.5 585.452L1693.66 553.365C1696.49 551.162 1696.8 546.761 1694.6 544.242 1694.6 544.242 1694.6 544.242 1694.29 543.931L1648.36 498.942C1647.1 497.682 1645.53 496.739 1643.95 496.112L1601.17 480.068C1600.54 479.754 1598.97 479.754 1598.97 479.754Z" stroke="#FFFFFF" stroke-width="1.99844" transform="matrix(1.00078 0 0 1 -430.722 -241.812)"/></g></g></g><g clip-path="url(#clip4)"><g clip-path="url(#clip5)"><g clip-path="url(#clip6)"><path d="M556.239 652.145C551.026 652.145 546.8 656.371 546.8 661.584L546.8 677.312C546.8 682.525 551.026 686.751 556.239 686.751 561.453 686.751 565.679 682.525 565.679 677.312L565.679 661.584C565.679 656.371 561.453 652.145 556.239 652.145Z" stroke="#FFFFFF" stroke-width="1.99844" transform="matrix(1.00078 0 0 1 -430.722 -241.812)"/><path d="M722.052 543.931 676.529 499.312C674.331 497.152 671.714 495.47 668.84 494.356L626.935 478.627C621.026 476.254 614.261 477.836 610.016 482.584 594.682 498.388 569.443 498.767 553.637 483.433 553.351 483.155 553.068 482.871 552.791 482.584 548.697 478.224 542.477 476.58 536.762 478.35L493.787 494.434C491.015 495.518 488.486 497.152 486.356 499.234L441.208 543.454 440.768 543.931C437.817 547.257 436.372 551.653 436.773 556.084 437.163 560.397 439.328 564.356 442.75 567.011L484.202 598.257C489.619 602.483 497.167 602.653 502.764 598.67L502.764 730.791 660.052 730.791 660.052 598.928C665.737 602.93 673.372 602.716 678.824 598.403L720.18 566.924C723.545 564.268 725.666 560.349 726.045 556.079 726.444 551.653 724.999 547.257 722.052 543.931ZM669.321 581.917 641.179 555.456 641.179 711.918 625.446 711.918 625.446 667.872C625.446 660.923 619.815 655.291 612.865 655.291 605.916 655.291 600.28 660.923 600.28 667.872L600.28 693.039C600.28 687.831 596.054 683.604 590.845 683.604 585.632 683.604 581.406 687.831 581.406 693.039L581.406 711.918 521.633 711.918 521.633 555.15 493.481 581.615 457.167 554.245 499.637 512.641C499.919 512.379 500.24 512.165 500.595 512.014L540.57 497.055C563.339 519.08 599.468 519.08 622.237 497.055L662.017 511.975C662.474 512.145 662.888 512.403 663.243 512.734L705.649 554.26Z" stroke="#FFFFFF" stroke-width="1.99844" transform="matrix(1.00078 0 0 1 -430.722 -241.812)"/></g></g></g><g clip-path="url(#clip7)"><g clip-path="url(#clip8)"><g clip-path="url(#clip9)"><path d="M254.62 40.8619 254.62 22.0025 47.1672 22.0025 47.1672 34.5754 47.1672 34.5754 47.1672 100.583 47.1672 100.583 47.1672 279.747 254.62 279.747 254.62 78.5803 254.62 78.5803 254.62 40.8619ZM150.894 235.741C117.042 235.741 89.6005 208.3 89.6005 174.449 89.6005 140.598 117.042 113.156 150.894 113.156 184.744 113.156 212.186 140.598 212.186 174.449 212.186 208.3 184.744 235.741 150.894 235.741ZM235.76 78.5803 66.0266 78.5803 66.0266 40.8619 235.76 40.8619Z" stroke="#FFFFFF" stroke-width="2" transform="matrix(1 0 0 1.00083 489.125 209)"/><path d="M84.8825 50.2913 122.601 50.2913 122.601 69.1507 84.8825 69.1507Z" stroke="#FFFFFF" stroke-width="2" transform="matrix(1 0 0 1.00083 489.125 209)"/><path d="M150.894 125.729C123.986 125.729 102.174 147.542 102.174 174.449 102.174 201.356 123.986 223.169 150.894 223.169 177.801 223.169 199.613 201.356 199.613 174.449 199.584 147.554 177.789 125.758 150.894 125.729ZM186.974 175.775C183.23 179.521 177.158 179.522 173.412 175.778 173.233 175.598 173.061 175.412 172.896 175.219 169.454 171.168 163.381 170.674 159.329 174.116 158.933 174.453 158.564 174.822 158.226 175.219 154.787 179.269 148.715 179.763 144.665 176.323 144.267 175.986 143.898 175.616 143.561 175.219 140.119 171.168 134.045 170.674 129.994 174.116 129.597 174.453 129.228 174.822 128.891 175.219 125.454 179.248 119.401 179.729 115.371 176.291 115.178 176.127 114.992 175.955 114.813 175.775 114.797 175.332 114.746 174.898 114.746 174.449 114.746 154.485 130.93 138.302 150.894 138.302 170.857 138.302 187.041 154.485 187.041 174.449 187.041 174.898 186.99 175.332 186.974 175.775Z" stroke="#FFFFFF" stroke-width="2" transform="matrix(1 0 0 1.00083 489.125 209)"/><path d="M166.606 59.721C166.606 64.9291 162.385 69.1507 157.177 69.1507 151.969 69.1507 147.747 64.9291 147.747 59.721 147.747 54.5134 151.969 50.2913 157.177 50.2913 162.385 50.2913 166.606 54.5134 166.606 59.721Z" stroke="#FFFFFF" stroke-width="2" transform="matrix(1 0 0 1.00083 489.125 209)"/><path d="M194.895 59.721C194.895 64.9291 190.674 69.1507 185.466 69.1507 180.258 69.1507 176.036 64.9291 176.036 59.721 176.036 54.5134 180.258 50.2913 185.466 50.2913 190.674 50.2913 194.895 54.5134 194.895 59.721Z" stroke="#FFFFFF" stroke-width="2" transform="matrix(1 0 0 1.00083 489.125 209)"/><path d="M223.184 59.721C223.184 64.9291 218.963 69.1507 213.755 69.1507 208.547 69.1507 204.325 64.9291 204.325 59.721 204.325 54.5134 208.547 50.2913 213.755 50.2913 218.963 50.2913 223.184 54.5134 223.184 59.721Z" stroke="#FFFFFF" stroke-width="2" transform="matrix(1 0 0 1.00083 489.125 209)"/></g></g></g></g></svg>